<?xml version="1.0" encoding="us-ascii" standalone="no"?><svg xmlns="http://www.w3.org/2000/svg" xmlns:xlink="http://www.w3.org/1999/xlink" contentStyleType="text/css" height="1197px" preserveAspectRatio="none" style="width:1054px;height:1197px;background:#FFFFFF;" version="1.1" viewBox="0 0 1054 1197" width="1054px" zoomAndPan="magnify"><defs/><g><text fill="#888888" font-family="sans-serif" font-size="10" lengthAdjust="spacing" textLength="60" x="980" y="10.791">16 &#1084;&#1072;&#1103; 2024</text><text fill="#000000" font-family="sans-serif" font-size="14" font-weight="bold" lengthAdjust="spacing" textLength="52" x="494" y="39.4082">Movies</text><!--cluster Loader--><g id="cluster_Loader"><path d="M395.5,130.9219 L443.5,130.9219 A5.25,5.25 0 0 1 447,134.4219 L454,155.543 L554.5,155.543 A3.5,3.5 0 0 1 558,159.043 L558,229.4219 A3.5,3.5 0 0 1 554.5,232.9219 L395.5,232.9219 A3.5,3.5 0 0 1 392,229.4219 L392,134.4219 A3.5,3.5 0 0 1 395.5,130.9219 " fill="none" style="stroke:#696969;stroke-width:1.0;"/><line style="stroke:#696969;stroke-width:1.0;" x1="392" x2="454" y1="155.543" y2="155.543"/><text fill="#000000" font-family="sans-serif" font-size="14" font-weight="bold" lengthAdjust="spacing" textLength="49" x="396" y="148.0293">Loader</text></g><!--cluster AdminPanel--><g id="cluster_AdminPanel"><path d="M525.5,300.9219 L606.5,300.9219 A5.25,5.25 0 0 1 610,304.4219 L617,325.543 L628.5,325.543 A3.5,3.5 0 0 1 632,329.043 L632,399.4219 A3.5,3.5 0 0 1 628.5,402.9219 L525.5,402.9219 A3.5,3.5 0 0 1 522,399.4219 L522,304.4219 A3.5,3.5 0 0 1 525.5,300.9219 " fill="none" style="stroke:#696969;stroke-width:1.0;"/><line style="stroke:#696969;stroke-width:1.0;" x1="522" x2="617" y1="325.543" y2="325.543"/><text fill="#000000" font-family="sans-serif" font-size="14" font-weight="bold" lengthAdjust="spacing" textLength="82" x="526" y="318.0293">AdminPanel</text></g><!--cluster ETL--><g id="cluster_ETL"><path d="M9.5,130.9219 L33.5,130.9219 A5.25,5.25 0 0 1 37,134.4219 L44,155.543 L364.5,155.543 A3.5,3.5 0 0 1 368,159.043 L368,399.4219 A3.5,3.5 0 0 1 364.5,402.9219 L9.5,402.9219 A3.5,3.5 0 0 1 6,399.4219 L6,134.4219 A3.5,3.5 0 0 1 9.5,130.9219 " fill="none" style="stroke:#696969;stroke-width:1.0;"/><line style="stroke:#696969;stroke-width:1.0;" x1="6" x2="44" y1="155.543" y2="155.543"/><text fill="#000000" font-family="sans-serif" font-size="14" font-weight="bold" lengthAdjust="spacing" textLength="25" x="10" y="148.0293">ETL</text></g><!--cluster AsyncAPI--><g id="cluster_AsyncAPI"><path d="M134.5,591.9219 L196.5,591.9219 A5.25,5.25 0 0 1 200,595.4219 L207,616.543 L399.5,616.543 A3.5,3.5 0 0 1 403,620.043 L403,832.4219 A3.5,3.5 0 0 1 399.5,835.9219 L134.5,835.9219 A3.5,3.5 0 0 1 131,832.4219 L131,595.4219 A3.5,3.5 0 0 1 134.5,591.9219 " fill="none" style="stroke:#696969;stroke-width:1.0;"/><line style="stroke:#696969;stroke-width:1.0;" x1="131" x2="207" y1="616.543" y2="616.543"/><text fill="#000000" font-family="sans-serif" font-size="14" font-weight="bold" lengthAdjust="spacing" textLength="63" x="135" y="609.0293">AsyncAPI</text></g><!--cluster AuthAPI--><g id="cluster_AuthAPI"><path d="M740.5,591.9219 L793.5,591.9219 A5.25,5.25 0 0 1 797,595.4219 L804,616.543 L1043.5,616.543 A3.5,3.5 0 0 1 1047,620.043 L1047,958.9219 A3.5,3.5 0 0 1 1043.5,962.4219 L740.5,962.4219 A3.5,3.5 0 0 1 737,958.9219 L737,595.4219 A3.5,3.5 0 0 1 740.5,591.9219 " fill="none" style="stroke:#696969;stroke-width:1.0;"/><line style="stroke:#696969;stroke-width:1.0;" x1="737" x2="804" y1="616.543" y2="616.543"/><text fill="#000000" font-family="sans-serif" font-size="14" font-weight="bold" lengthAdjust="spacing" textLength="54" x="741" y="609.0293">AuthAPI</text></g><!--cluster UGC--><g id="cluster_UGC"><path d="M438.5,599.9219 L468.5,599.9219 A5.25,5.25 0 0 1 472,603.4219 L479,624.543 L583.5,624.543 A3.5,3.5 0 0 1 587,628.043 L587,1071.9219 A3.5,3.5 0 0 1 583.5,1075.4219 L438.5,1075.4219 A3.5,3.5 0 0 1 435,1071.9219 L435,603.4219 A3.5,3.5 0 0 1 438.5,599.9219 " fill="none" style="stroke:#696969;stroke-width:1.0;"/><line style="stroke:#696969;stroke-width:1.0;" x1="435" x2="479" y1="624.543" y2="624.543"/><text fill="#000000" font-family="sans-serif" font-size="14" font-weight="bold" lengthAdjust="spacing" textLength="31" x="439" y="617.0293">UGC</text></g><g id="cluster_##45"><path d="M621.0575,1005.0708 C623.5264,996.0434 631.1036,996.4703 636.5194,1001.9244 C642.8199,993.6248 648.8933,995.1565 653.6982,1003.4709 C656.6518,993.9828 664.9866,994.5759 670.1708,1001.1888 C673.7295,994.2602 679.8288,993.2813 684.7525,999.6972 C689.3523,992.4814 696.0439,993.8954 700.1715,1000.2343 C703.5048,990.4839 711.2688,991.2445 716.904,997.8842 C723.1723,990.1905 728.0544,991.2018 732.487,999.6557 C736.6789,991.4537 744.5021,992.0283 749.2688,999.0207 C754.2607,991.9584 760.3579,993.3744 763.915,1000.5017 C767.9285,991.7271 775.8277,993.4803 780.1812,1000.1434 C785.9134,993.8589 790.9275,993.5066 796.2046,1000.6851 C802.5451,991.3288 808.0346,991.1542 814.0059,1001.0269 C819.661,993.0655 826.7218,994.2661 829.8844,1003.3489 C835.7208,995.5637 841.0301,996.5301 846.6732,1003.5679 C855.7589,1009.2694 854.3165,1014.7106 846.559,1020.2971 C854.2608,1024.1379 855.089,1030.4946 847.9585,1035.6844 C854.4137,1041.4876 855.0624,1049.6608 845.0459,1052.6334 C853.2713,1057.7156 852.1172,1064.7413 845.1069,1069.8775 C840.2737,1077.9006 835.3782,1077.6378 829.675,1070.7797 C825.7776,1080.4785 817.8959,1081.2088 812.3237,1072.3452 C808.7541,1080.8933 802.9034,1081.289 797.437,1074.1444 C793.4285,1082.4467 787.7044,1083.0637 781.8931,1075.9638 C777.6827,1084.6069 771.5663,1085.6044 765.8204,1077.4314 C761.4051,1086.775 754.0499,1087.4735 748.6355,1078.3616 C745.5126,1087.5198 738.011,1089.255 731.5469,1081.7979 C726.1441,1087.2915 720.0124,1086.5553 717.0452,1079.0753 C712.5138,1086.165 706.5545,1085.0744 702.1114,1078.9753 C695.7627,1086.0328 689.2758,1084.7437 686.0209,1075.8537 C679.8181,1083.7148 672.8399,1082.8698 667.8885,1074.4592 C663.2782,1079.9286 657.7377,1080.5913 653.8945,1073.5979 C646.8373,1079.6925 639.6355,1078.7765 636.2886,1069.3808 C631.8484,1077.966 623.46,1076.3242 619.3799,1068.9981 C611.1177,1063.5187 612.4755,1057.618 619.5162,1052.2632 C610.445,1046.713 609.9458,1040.9288 619.2032,1035.0453 C613.2016,1030.004 613.2964,1025.4836 620.2461,1021.4347 C612.9618,1016.9495 613.6303,1008.8264 621.0575,1005.0708 " fill="none" style="stroke:#696969;stroke-width:1.0;"/></g><g id="cluster_##49"><path d="M473.3388,440.6756 C476.5862,433.5511 482.908,433.5421 487.1305,439.66 C490.1153,433.7648 494.7749,433.0687 499.0758,438.2394 C502.6433,432.5944 508.5804,431.1925 512.1655,438.2213 C516.0655,432.4882 520.2691,432.38 524.8559,437.4116 C529.1843,432.3192 535.4142,432.2011 537.5533,439.6314 C545.5978,433.7481 553.348,435.9915 556,445.9219 C557.0317,446.2719 557.3906,447.0447 556.6478,447.959 C562.9351,449.7452 563.7392,454.8858 558.6275,458.7612 C564.6394,462.3307 565.5775,468.7697 558.8422,472.5379 C564.5404,475.7315 565.5546,481.2264 559.6047,485.1256 C565.1937,488.1224 565.8089,491.6249 561.6741,496.4056 C566.6873,500.354 567.6531,504.5171 561.1744,507.9689 C566.5926,513.0481 565.3208,517.6844 558.5947,520.2027 C564.1291,524.4224 563.5569,529.1776 557.7718,532.6489 C563.1652,541.5553 559.4431,550.2232 549,551.9219 C549.7904,551.3995 550.3548,551.57 550.4971,552.5624 C547.792,559.3914 542.6149,560.1396 537.7994,554.7569 C533.2319,560.3996 528.4321,560.282 524.1422,554.4273 C522.5288,561.8694 516.5832,562.9362 511.6492,557.6992 C506.5597,563.9786 500.6952,561.6551 498.6511,554.7067 C494.9717,560.7248 491.3571,560.7375 487.164,555.2182 C476.2069,562.7303 466.9726,557.9328 466,544.9219 C466.2942,544.9711 466.3657,545.1849 466.1791,545.4104 C459.7386,541.8334 458.4958,537.8236 464.7988,532.8465 C459.6809,530.2306 458.5829,525.1605 463.2921,521.266 C457.5054,518.9238 455.5178,513.7486 461.3741,509.5073 C454.8815,507.1182 453.1257,500.8793 459.2774,496.4585 C453.0945,491.063 455.3089,485.6343 462.1893,483.0826 C458.0641,479.8438 457.8482,474.596 463.2835,472.3301 C458.7389,467.3203 460.1924,462.4009 466.0939,459.719 C459.2993,450.2635 461.2086,442.2055 473,438.9219 C473.8557,439.3076 474.0067,439.9955 473.3388,440.6756 " fill="none" style="stroke:#696969;stroke-width:1.0;"/></g><g id="cluster_##52"><path d="M891.5493,463.2533 C895.0477,458.5292 899.2252,457.4675 902.6787,463.3008 C905.4148,456.5874 910.0392,456.8221 914.2386,461.8616 C918.0929,456.7593 922.6582,456.9139 926.2054,462.2149 C928.0098,455.5582 933.6345,455.0099 937.7969,459.8341 C940.4288,454.5991 944.9835,454.8515 948.449,458.875 C952.7494,453.0889 956.4257,454.8053 959.6539,459.9719 C963.4186,454.5591 967.1365,455.6899 970.2106,460.673 C975.4708,455.4067 978.8434,457.5581 981.603,463.2683 C985.4666,457.9922 989.3462,457.2679 993.1418,463.3374 C997.43,459.4166 1000.8108,459.5556 1003.6062,465.0046 C1011.6359,469.0649 1012.7861,475.4871 1005.1309,481.039 C1012.8069,483.6638 1014.1193,490.2999 1008.9315,496.1584 C1015.5255,503.8544 1015.0307,509.3568 1005.4467,513.8696 C1012.4097,518.7189 1012.9276,525.5381 1004.4235,529.3661 C1000.0759,535.2126 996.1463,534.4033 991.8371,529.3218 C989.6208,534.3732 986.1895,535.0477 982.2386,531.1908 C979.6404,537.3203 973.9443,538.9384 969.7719,532.7891 C967.4579,538.8403 962.2774,539.7677 958.5599,534.1361 C955.0181,538.1104 951.4905,538.5596 948.4294,533.5916 C945.1283,539.4033 940.3736,538.8955 937.1266,533.5369 C934.0801,538.9888 928.835,538.919 926.4558,532.9153 C921.3619,538.6156 916.3018,537.1214 913.8153,530.286 C910.5087,535.064 905.3188,534.7247 903.0708,529.1838 C899.4216,535.4887 894.8974,534.874 891.0966,529.3371 C886.2913,526.3634 884.9037,522.673 889.9839,518.6683 C883.5236,516.0912 882.0272,512.6105 886.4894,506.8137 C880.8128,504.6347 879.7965,501.5598 883.5042,496.63 C878.5141,491.6471 880.381,488.4153 885.6614,485.4063 C881.8793,481.6174 883.4011,477.1794 888.248,475.687 C883.8262,469.9619 885.3906,466.1692 891.5493,463.2533 " fill="none" style="stroke:#696969;stroke-width:1.0;"/></g><g id="cluster_##55"><path d="M458.5038,1113.1837 C462.738,1107.2267 467.1604,1107.2271 471.5885,1112.9668 C475.1464,1105.8278 481.7556,1105.5344 485.9671,1112.2904 C488.5506,1104.912 494.9977,1105.3865 499.4093,1110.2895 C504.5863,1103.3548 508.9086,1103.9458 513.0496,1111.2799 C516.7504,1106.6272 521.044,1106.2843 524.5801,1111.4729 C529.5669,1104.0756 535.4279,1105.1081 539.6615,1112.2539 C544.0404,1106.2854 548.3311,1106.9782 551.908,1113.0683 C556.2656,1106.6833 561.7126,1106.8602 565.9486,1113.2024 C574.5782,1117.6829 574.0667,1122.9482 567.295,1128.7614 C575.3147,1131.8813 576.4212,1139.2774 568.5472,1143.7271 C575.3526,1149.4087 574.9261,1155.7214 566.5424,1159.4685 C575.0338,1165.0435 572.8767,1172.7046 564.5771,1176.3216 C561.0902,1182.3281 557.1899,1182.2754 552.598,1177.5555 C550.1099,1184.1677 544.5214,1187.4212 538.81,1180.9532 C535.7718,1187.4181 529.6216,1188.9318 524.7233,1183.0807 C521.6147,1190.209 516.234,1190.8542 511.8996,1184.2232 C506.9377,1189.4871 502.0799,1188.474 499.5777,1181.7045 C495.1891,1188.4406 488.3643,1187.8089 484.7409,1180.8741 C479.5712,1184.9849 474.6703,1185.2475 472.5027,1177.7178 C466.9318,1183.947 462.1825,1182.3851 458.6125,1175.5847 C454.3533,1173.3376 452.6019,1170.4495 456.9585,1166.6138 C450.5443,1164.9864 449.876,1160.7484 453.8838,1156.0792 C448.254,1154.1249 445.2921,1149.0896 450.7045,1144.184 C445.5706,1139.1582 446.9706,1135.016 453.5576,1132.9732 C449.6457,1127.7934 450.8524,1124.4406 457.176,1122.9592 C453.0803,1119.5104 454.1699,1115.4875 458.5038,1113.1837 " fill="none" style="stroke:#696969;stroke-width:1.0;"/></g><!--entity Loader.service--><g id="elem_Loader.service"><rect fill="#F1F1F1" height="48.6211" rx="3.5" ry="3.5" style="stroke:#181818;stroke-width:0.5;" width="134" x="408" y="167.9219"/><rect fill="#F1F1F1" height="10" style="stroke:#181818;stroke-width:0.5;" width="15" x="522" y="172.9219"/><rect fill="#F1F1F1" height="2" style="stroke:#181818;stroke-width:0.5;" width="4" x="520" y="174.9219"/><rect fill="#F1F1F1" height="2" style="stroke:#181818;stroke-width:0.5;" width="4" x="520" y="178.9219"/><text fill="#000000" font-family="sans-serif" font-size="14" lengthAdjust="spacing" textLength="94" x="423" y="203.0293">Loader.service</text></g><!--entity admin--><g id="elem_admin"><rect fill="#F1F1F1" height="48.6211" rx="3.5" ry="3.5" style="stroke:#181818;stroke-width:0.5;" width="78" x="538" y="337.9219"/><rect fill="#F1F1F1" height="10" style="stroke:#181818;stroke-width:0.5;" width="15" x="596" y="342.9219"/><rect fill="#F1F1F1" height="2" style="stroke:#181818;stroke-width:0.5;" width="4" x="594" y="344.9219"/><rect fill="#F1F1F1" height="2" style="stroke:#181818;stroke-width:0.5;" width="4" x="594" y="348.9219"/><text fill="#000000" font-family="sans-serif" font-size="14" lengthAdjust="spacing" textLength="38" x="553" y="373.0293">admin</text></g><!--entity movies--><g id="elem_movies"><rect fill="#F1F1F1" height="48.6211" rx="3.5" ry="3.5" style="stroke:#181818;stroke-width:0.5;" width="84" x="268" y="167.9219"/><rect fill="#F1F1F1" height="10" style="stroke:#181818;stroke-width:0.5;" width="15" x="332" y="172.9219"/><rect fill="#F1F1F1" height="2" style="stroke:#181818;stroke-width:0.5;" width="4" x="330" y="174.9219"/><rect fill="#F1F1F1" height="2" style="stroke:#181818;stroke-width:0.5;" width="4" x="330" y="178.9219"/><text fill="#000000" font-family="sans-serif" font-size="14" lengthAdjust="spacing" textLength="44" x="283" y="203.0293">movies</text></g><!--entity ETL.service--><g id="elem_ETL.service"><rect fill="#F1F1F1" height="48.6211" rx="3.5" ry="3.5" style="stroke:#181818;stroke-width:0.5;" width="115" x="171.5" y="337.9219"/><rect fill="#F1F1F1" height="10" style="stroke:#181818;stroke-width:0.5;" width="15" x="266.5" y="342.9219"/><rect fill="#F1F1F1" height="2" style="stroke:#181818;stroke-width:0.5;" width="4" x="264.5" y="344.9219"/><rect fill="#F1F1F1" height="2" style="stroke:#181818;stroke-width:0.5;" width="4" x="264.5" y="348.9219"/><text fill="#000000" font-family="sans-serif" font-size="14" lengthAdjust="spacing" textLength="75" x="186.5" y="373.0293">ETL.service</text></g><!--entity genres--><g id="elem_genres"><rect fill="#F1F1F1" height="48.6211" rx="3.5" ry="3.5" style="stroke:#181818;stroke-width:0.5;" width="84" x="149" y="167.9219"/><rect fill="#F1F1F1" height="10" style="stroke:#181818;stroke-width:0.5;" width="15" x="213" y="172.9219"/><rect fill="#F1F1F1" height="2" style="stroke:#181818;stroke-width:0.5;" width="4" x="211" y="174.9219"/><rect fill="#F1F1F1" height="2" style="stroke:#181818;stroke-width:0.5;" width="4" x="211" y="178.9219"/><text fill="#000000" font-family="sans-serif" font-size="14" lengthAdjust="spacing" textLength="44" x="164" y="203.0293">genres</text></g><!--entity persons--><g id="elem_persons"><rect fill="#F1F1F1" height="48.6211" rx="3.5" ry="3.5" style="stroke:#181818;stroke-width:0.5;" width="91" x="22.5" y="167.9219"/><rect fill="#F1F1F1" height="10" style="stroke:#181818;stroke-width:0.5;" width="15" x="93.5" y="172.9219"/><rect fill="#F1F1F1" height="2" style="stroke:#181818;stroke-width:0.5;" width="4" x="91.5" y="174.9219"/><rect fill="#F1F1F1" height="2" style="stroke:#181818;stroke-width:0.5;" width="4" x="91.5" y="178.9219"/><text fill="#000000" font-family="sans-serif" font-size="14" lengthAdjust="spacing" textLength="51" x="37.5" y="203.0293">persons</text></g><!--entity api_cache--><g id="elem_api_cache"><path d="M192,755.9219 C192,745.9219 229,745.9219 229,745.9219 C229,745.9219 266,745.9219 266,755.9219 L266,802.1641 C266,812.1641 229,812.1641 229,812.1641 C229,812.1641 192,812.1641 192,802.1641 L192,755.9219 " fill="#00FFFF" style="stroke:#454645;stroke-width:0.5;"/><path d="M192,755.9219 C192,765.9219 229,765.9219 229,765.9219 C229,765.9219 266,765.9219 266,755.9219 " fill="none" style="stroke:#454645;stroke-width:0.5;"/><text fill="#454645" font-family="sans-serif" font-size="14" font-style="italic" lengthAdjust="spacing" textLength="54" x="202" y="785.0293">&#171;cache&#187;</text><text fill="#454645" font-family="sans-serif" font-size="14" lengthAdjust="spacing" textLength="36" x="211" y="803.6504">Redis</text></g><!--entity API.service--><g id="elem_API.service"><rect fill="#F1F1F1" height="48.6211" rx="3.5" ry="3.5" style="stroke:#181818;stroke-width:0.5;" width="110" x="174" y="636.9219"/><rect fill="#F1F1F1" height="10" style="stroke:#181818;stroke-width:0.5;" width="15" x="264" y="641.9219"/><rect fill="#F1F1F1" height="2" style="stroke:#181818;stroke-width:0.5;" width="4" x="262" y="643.9219"/><rect fill="#F1F1F1" height="2" style="stroke:#181818;stroke-width:0.5;" width="4" x="262" y="647.9219"/><text fill="#000000" font-family="sans-serif" font-size="14" lengthAdjust="spacing" textLength="70" x="189" y="672.0293">API.service</text></g><!--entity api--><g id="elem_api"><rect fill="#F1F1F1" height="48.6211" rx="3.5" ry="3.5" style="stroke:#181818;stroke-width:0.5;" width="59" x="319.5" y="636.9219"/><rect fill="#F1F1F1" height="10" style="stroke:#181818;stroke-width:0.5;" width="15" x="358.5" y="641.9219"/><rect fill="#F1F1F1" height="2" style="stroke:#181818;stroke-width:0.5;" width="4" x="356.5" y="643.9219"/><rect fill="#F1F1F1" height="2" style="stroke:#181818;stroke-width:0.5;" width="4" x="356.5" y="647.9219"/><text fill="#000000" font-family="sans-serif" font-size="14" lengthAdjust="spacing" textLength="19" x="334.5" y="672.0293">api</text></g><!--entity Auth.api--><g id="elem_Auth.api"><rect fill="#F1F1F1" height="48.6211" rx="3.5" ry="3.5" style="stroke:#181818;stroke-width:0.5;" width="92" x="780" y="636.9219"/><rect fill="#F1F1F1" height="10" style="stroke:#181818;stroke-width:0.5;" width="15" x="852" y="641.9219"/><rect fill="#F1F1F1" height="2" style="stroke:#181818;stroke-width:0.5;" width="4" x="850" y="643.9219"/><rect fill="#F1F1F1" height="2" style="stroke:#181818;stroke-width:0.5;" width="4" x="850" y="647.9219"/><text fill="#000000" font-family="sans-serif" font-size="14" lengthAdjust="spacing" textLength="52" x="795" y="672.0293">Auth.api</text></g><!--entity auth--><g id="elem_auth"><rect fill="#F1F1F1" height="48.6211" rx="3.5" ry="3.5" style="stroke:#181818;stroke-width:0.5;" width="68" x="880" y="754.4219"/><rect fill="#F1F1F1" height="10" style="stroke:#181818;stroke-width:0.5;" width="15" x="928" y="759.4219"/><rect fill="#F1F1F1" height="2" style="stroke:#181818;stroke-width:0.5;" width="4" x="926" y="761.4219"/><rect fill="#F1F1F1" height="2" style="stroke:#181818;stroke-width:0.5;" width="4" x="926" y="765.4219"/><text fill="#000000" font-family="sans-serif" font-size="14" lengthAdjust="spacing" textLength="28" x="895" y="789.5293">auth</text></g><!--entity oauth--><g id="elem_oauth"><rect fill="#F1F1F1" height="48.6211" rx="3.5" ry="3.5" style="stroke:#181818;stroke-width:0.5;" width="76" x="769" y="754.4219"/><rect fill="#F1F1F1" height="10" style="stroke:#181818;stroke-width:0.5;" width="15" x="825" y="759.4219"/><rect fill="#F1F1F1" height="2" style="stroke:#181818;stroke-width:0.5;" width="4" x="823" y="761.4219"/><rect fill="#F1F1F1" height="2" style="stroke:#181818;stroke-width:0.5;" width="4" x="823" y="765.4219"/><text fill="#000000" font-family="sans-serif" font-size="14" lengthAdjust="spacing" textLength="36" x="784" y="789.5293">oauth</text></g><!--entity jaeger--><g id="elem_jaeger"><rect fill="#F1F1F1" height="48.6211" rx="3.5" ry="3.5" style="stroke:#181818;stroke-width:0.5;" width="80" x="907" y="636.9219"/><rect fill="#F1F1F1" height="10" style="stroke:#181818;stroke-width:0.5;" width="15" x="967" y="641.9219"/><rect fill="#F1F1F1" height="2" style="stroke:#181818;stroke-width:0.5;" width="4" x="965" y="643.9219"/><rect fill="#F1F1F1" height="2" style="stroke:#181818;stroke-width:0.5;" width="4" x="965" y="647.9219"/><text fill="#000000" font-family="sans-serif" font-size="14" lengthAdjust="spacing" textLength="40" x="922" y="672.0293">jaeger</text></g><!--entity db_auth--><g id="elem_db_auth"><path d="M769.5,891.4219 C769.5,881.4219 818,881.4219 818,881.4219 C818,881.4219 866.5,881.4219 866.5,891.4219 L866.5,919.043 C866.5,929.043 818,929.043 818,929.043 C818,929.043 769.5,929.043 769.5,919.043 L769.5,891.4219 " fill="#00FFFF" style="stroke:#454645;stroke-width:0.5;"/><path d="M769.5,891.4219 C769.5,901.4219 818,901.4219 818,901.4219 C818,901.4219 866.5,901.4219 866.5,891.4219 " fill="none" style="stroke:#454645;stroke-width:0.5;"/><text fill="#454645" font-family="sans-serif" font-size="14" lengthAdjust="spacing" textLength="77" x="779.5" y="920.5293">PostgreSQL</text></g><!--entity refresh_token--><g id="elem_refresh_token"><path d="M901.5,882.4219 C901.5,872.4219 962,872.4219 962,872.4219 C962,872.4219 1022.5,872.4219 1022.5,882.4219 L1022.5,928.6641 C1022.5,938.6641 962,938.6641 962,938.6641 C962,938.6641 901.5,938.6641 901.5,928.6641 L901.5,882.4219 " fill="#00FFFF" style="stroke:#454645;stroke-width:0.5;"/><path d="M901.5,882.4219 C901.5,892.4219 962,892.4219 962,892.4219 C962,892.4219 1022.5,892.4219 1022.5,882.4219 " fill="none" style="stroke:#454645;stroke-width:0.5;"/><text fill="#454645" font-family="sans-serif" font-size="14" font-style="italic" lengthAdjust="spacing" textLength="101" x="911.5" y="911.5293">&#171;refresh token&#187;</text><text fill="#454645" font-family="sans-serif" font-size="14" lengthAdjust="spacing" textLength="36" x="944" y="930.1504">Redis</text></g><!--entity UGC.api--><g id="elem_UGC.api"><rect fill="#F1F1F1" height="48.6211" rx="3.5" ry="3.5" style="stroke:#181818;stroke-width:0.5;" width="93" x="464.5" y="636.9219"/><rect fill="#F1F1F1" height="10" style="stroke:#181818;stroke-width:0.5;" width="15" x="537.5" y="641.9219"/><rect fill="#F1F1F1" height="2" style="stroke:#181818;stroke-width:0.5;" width="4" x="535.5" y="643.9219"/><rect fill="#F1F1F1" height="2" style="stroke:#181818;stroke-width:0.5;" width="4" x="535.5" y="647.9219"/><text fill="#000000" font-family="sans-serif" font-size="14" lengthAdjust="spacing" textLength="53" x="479.5" y="672.0293">UGC.api</text></g><!--entity UGC.service--><g id="elem_UGC.service"><rect fill="#F1F1F1" height="48.6211" rx="3.5" ry="3.5" style="stroke:#181818;stroke-width:0.5;" width="119" x="451.5" y="754.4219"/><rect fill="#F1F1F1" height="10" style="stroke:#181818;stroke-width:0.5;" width="15" x="550.5" y="759.4219"/><rect fill="#F1F1F1" height="2" style="stroke:#181818;stroke-width:0.5;" width="4" x="548.5" y="761.4219"/><rect fill="#F1F1F1" height="2" style="stroke:#181818;stroke-width:0.5;" width="4" x="548.5" y="765.4219"/><text fill="#000000" font-family="sans-serif" font-size="14" lengthAdjust="spacing" textLength="79" x="466.5" y="789.5293">UGC.service</text></g><!--entity Broker--><g id="elem_Broker"><rect fill="#F1F1F1" height="67.2422" rx="3.5" ry="3.5" style="stroke:#181818;stroke-width:0.5;" width="93" x="464.5" y="871.9219"/><rect fill="#F1F1F1" height="10" style="stroke:#181818;stroke-width:0.5;" width="15" x="537.5" y="876.9219"/><rect fill="#F1F1F1" height="2" style="stroke:#181818;stroke-width:0.5;" width="4" x="535.5" y="878.9219"/><rect fill="#F1F1F1" height="2" style="stroke:#181818;stroke-width:0.5;" width="4" x="535.5" y="882.9219"/><text fill="#000000" font-family="sans-serif" font-size="14" font-style="italic" lengthAdjust="spacing" textLength="53" x="479.5" y="907.0293">&#171;Kafka&#187;</text><text fill="#000000" font-family="sans-serif" font-size="14" lengthAdjust="spacing" textLength="42" x="485" y="925.6504">Broker</text></g><!--entity UGC.ETL--><g id="elem_UGC.ETL"><rect fill="#F1F1F1" height="48.6211" rx="3.5" ry="3.5" style="stroke:#181818;stroke-width:0.5;" width="100" x="461" y="1010.4219"/><rect fill="#F1F1F1" height="10" style="stroke:#181818;stroke-width:0.5;" width="15" x="541" y="1015.4219"/><rect fill="#F1F1F1" height="2" style="stroke:#181818;stroke-width:0.5;" width="4" x="539" y="1017.4219"/><rect fill="#F1F1F1" height="2" style="stroke:#181818;stroke-width:0.5;" width="4" x="539" y="1021.4219"/><text fill="#000000" font-family="sans-serif" font-size="14" lengthAdjust="spacing" textLength="60" x="476" y="1045.5293">UGC.ETL</text></g><!--entity Google--><g id="elem_Google"><rect fill="#F1F1F1" height="48.6211" rx="3.5" ry="3.5" style="stroke:#181818;stroke-width:0.5;" width="86" x="627" y="1010.4219"/><rect fill="#F1F1F1" height="10" style="stroke:#181818;stroke-width:0.5;" width="15" x="693" y="1015.4219"/><rect fill="#F1F1F1" height="2" style="stroke:#181818;stroke-width:0.5;" width="4" x="691" y="1017.4219"/><rect fill="#F1F1F1" height="2" style="stroke:#181818;stroke-width:0.5;" width="4" x="691" y="1021.4219"/><text fill="#000000" font-family="sans-serif" font-size="14" lengthAdjust="spacing" textLength="46" x="642" y="1045.5293">Google</text></g><!--entity Yandex--><g id="elem_Yandex"><rect fill="#F1F1F1" height="48.6211" rx="3.5" ry="3.5" style="stroke:#181818;stroke-width:0.5;" width="87" x="748.5" y="1010.4219"/><rect fill="#F1F1F1" height="10" style="stroke:#181818;stroke-width:0.5;" width="15" x="815.5" y="1015.4219"/><rect fill="#F1F1F1" height="2" style="stroke:#181818;stroke-width:0.5;" width="4" x="813.5" y="1017.4219"/><rect fill="#F1F1F1" height="2" style="stroke:#181818;stroke-width:0.5;" width="4" x="813.5" y="1021.4219"/><text fill="#000000" font-family="sans-serif" font-size="14" lengthAdjust="spacing" textLength="47" x="763.5" y="1045.5293">Yandex</text></g><!--entity Client--><g id="elem_Client"><ellipse cx="511" cy="474.043" fill="#454645" rx="8" ry="8" style="stroke:#454645;stroke-width:0.5;"/><path d="M511,482.043 L511,509.043 M498,490.043 L524,490.043 M511,509.043 L498,524.043 M511,509.043 L524,524.043 " fill="none" style="stroke:#454645;stroke-width:0.5;"/><text fill="#454645" font-family="sans-serif" font-size="14" lengthAdjust="spacing" textLength="36" x="493" y="540.6504">Client</text><text fill="#454645" font-family="sans-serif" font-size="14" font-style="italic" lengthAdjust="spacing" textLength="74" x="474" y="462.0293">&#171;Frontend&#187;</text></g><!--entity JaegerUI--><g id="elem_JaegerUI"><rect fill="#F1F1F1" height="48.6211" rx="3.5" ry="3.5" style="stroke:#181818;stroke-width:0.5;" width="95" x="899.5" y="470.9219"/><rect fill="#F1F1F1" height="10" style="stroke:#181818;stroke-width:0.5;" width="15" x="974.5" y="475.9219"/><rect fill="#F1F1F1" height="2" style="stroke:#181818;stroke-width:0.5;" width="4" x="972.5" y="477.9219"/><rect fill="#F1F1F1" height="2" style="stroke:#181818;stroke-width:0.5;" width="4" x="972.5" y="481.9219"/><text fill="#000000" font-family="sans-serif" font-size="14" lengthAdjust="spacing" textLength="55" x="914.5" y="506.0293">JaegerUI</text></g><!--entity ClickHouse--><g id="elem_ClickHouse"><path d="M466,1129.4219 C466,1119.4219 511,1119.4219 511,1119.4219 C511,1119.4219 556,1119.4219 556,1129.4219 L556,1157.043 C556,1167.043 511,1167.043 511,1167.043 C511,1167.043 466,1167.043 466,1157.043 L466,1129.4219 " fill="#00FFFF" style="stroke:#454645;stroke-width:0.5;"/><path d="M466,1129.4219 C466,1139.4219 511,1139.4219 511,1139.4219 C511,1139.4219 556,1139.4219 556,1129.4219 " fill="none" style="stroke:#454645;stroke-width:0.5;"/><text fill="#454645" font-family="sans-serif" font-size="14" lengthAdjust="spacing" textLength="70" x="476" y="1158.5293">ClickHouse</text></g><!--entity SQLite--><g id="elem_SQLite"><path d="M443.5,69.9219 C443.5,59.9219 475,59.9219 475,59.9219 C475,59.9219 506.5,59.9219 506.5,69.9219 L506.5,97.543 C506.5,107.543 475,107.543 475,107.543 C475,107.543 443.5,107.543 443.5,97.543 L443.5,69.9219 " fill="#00FFFF" style="stroke:#454645;stroke-width:0.5;"/><path d="M443.5,69.9219 C443.5,79.9219 475,79.9219 475,79.9219 C475,79.9219 506.5,79.9219 506.5,69.9219 " fill="none" style="stroke:#454645;stroke-width:0.5;"/><text fill="#454645" font-family="sans-serif" font-size="14" lengthAdjust="spacing" textLength="43" x="453.5" y="99.0293">SQLite</text></g><!--entity db_admin--><g id="elem_db_admin"><path d="M405.5,348.4219 C405.5,338.4219 454,338.4219 454,338.4219 C454,338.4219 502.5,338.4219 502.5,348.4219 L502.5,376.043 C502.5,386.043 454,386.043 454,386.043 C454,386.043 405.5,386.043 405.5,376.043 L405.5,348.4219 " fill="#00FFFF" style="stroke:#454645;stroke-width:0.5;"/><path d="M405.5,348.4219 C405.5,358.4219 454,358.4219 454,358.4219 C454,358.4219 502.5,358.4219 502.5,348.4219 " fill="none" style="stroke:#454645;stroke-width:0.5;"/><text fill="#454645" font-family="sans-serif" font-size="14" lengthAdjust="spacing" textLength="77" x="415.5" y="377.5293">PostgreSQL</text></g><!--entity Elasticsearch--><g id="elem_Elasticsearch"><path d="M177,481.4219 C177,471.4219 229,471.4219 229,471.4219 C229,471.4219 281,471.4219 281,481.4219 L281,509.043 C281,519.043 229,519.043 229,519.043 C229,519.043 177,519.043 177,509.043 L177,481.4219 " fill="#00FFFF" style="stroke:#454645;stroke-width:0.5;"/><path d="M177,481.4219 C177,491.4219 229,491.4219 229,491.4219 C229,491.4219 281,491.4219 281,481.4219 " fill="none" style="stroke:#454645;stroke-width:0.5;"/><text fill="#454645" font-family="sans-serif" font-size="14" lengthAdjust="spacing" textLength="84" x="187" y="510.5293">Elasticsearch</text></g><!--link movies to ETL.service--><g id="link_movies_ETL.service"><path d="M298.57,217.1319 C283.13,249.1519 258.3845,300.4666 242.9845,332.4266 " fill="none" id="movies-to-ETL.service" style="stroke:#454645;stroke-width:1.0;"/><polygon fill="#454645" points="240.38,337.8319,247.8903,331.4604,242.5504,333.3275,240.6833,327.9877,240.38,337.8319" style="stroke:#454645;stroke-width:1.0;"/></g><!--link genres to ETL.service--><g id="link_genres_ETL.service"><path d="M196.36,217.1319 C203.61,249.1519 215.1179,300.0194 222.3379,331.9794 " fill="none" id="genres-to-ETL.service" style="stroke:#454645;stroke-width:1.0;"/><polygon fill="#454645" points="223.66,337.8319,225.5785,328.1717,222.5582,332.9548,217.7751,329.9345,223.66,337.8319" style="stroke:#454645;stroke-width:1.0;"/></g><!--link persons to ETL.service--><g id="link_persons_ETL.service"><path d="M90.73,217.1319 C121.41,249.1519 171.6085,301.5401 202.2385,333.5001 " fill="none" id="persons-to-ETL.service" style="stroke:#454645;stroke-width:1.0;"/><polygon fill="#454645" points="206.39,337.8319,203.0506,328.5665,202.9304,334.222,197.2748,334.1019,206.39,337.8319" style="stroke:#454645;stroke-width:1.0;"/></g><!--reverse link API.service to api--><g id="link_API.service_api"><path d="M290.31,661.4219 C302.02,661.4219 307.73,661.4219 319.44,661.4219 " fill="none" id="API.service-backto-api" style="stroke:#454645;stroke-width:1.0;stroke-dasharray:7.0,7.0;"/><polygon fill="#454645" points="284.31,661.4219,293.31,665.4219,289.31,661.4219,293.31,657.4219,284.31,661.4219" style="stroke:#454645;stroke-width:1.0;"/></g><!--link API.service to api_cache--><g id="link_API.service_api_cache"><path d="M229,686.0719 C229,703.2319 229,720.6519 229,739.5419 " fill="none" id="API.service-to-api_cache" style="stroke:#454645;stroke-width:1.0;"/><polygon fill="#454645" points="229,745.5419,233,736.5419,229,740.5419,225,736.5419,229,745.5419" style="stroke:#454645;stroke-width:1.0;"/></g><!--link AuthAPI to AsyncAPI--><!--link Auth.api to auth--><g id="link_Auth.api_auth"><path d="M844.02,686.0719 C859.21,706.0019 877.1833,729.6096 892.3633,749.5296 " fill="none" id="Auth.api-to-auth" style="stroke:#454645;stroke-width:1.0;"/><polygon fill="#454645" points="896,754.3019,893.7265,744.719,892.9694,750.325,887.3635,749.5679,896,754.3019" style="stroke:#454645;stroke-width:1.0;"/></g><!--link Auth.api to oauth--><g id="link_Auth.api_oauth"><path d="M822.11,686.0719 C818.83,706.0019 815.1319,728.4611 811.8619,748.3811 " fill="none" id="Auth.api-to-oauth" style="stroke:#454645;stroke-width:1.0;"/><polygon fill="#454645" points="810.89,754.3019,816.2951,746.0687,811.6999,749.3679,808.4007,744.7728,810.89,754.3019" style="stroke:#454645;stroke-width:1.0;"/></g><!--link Auth.api to jaeger--><g id="link_Auth.api_jaeger"><path d="M872.32,661.4219 C883.79,661.4219 889.27,661.4219 900.74,661.4219 " fill="none" id="Auth.api-to-jaeger" style="stroke:#454645;stroke-width:1.0;stroke-dasharray:7.0,7.0;"/><polygon fill="#454645" points="906.74,661.4219,897.74,657.4219,901.74,661.4219,897.74,665.4219,906.74,661.4219" style="stroke:#454645;stroke-width:1.0;"/></g><!--link auth to db_auth--><g id="link_auth_db_auth"><path d="M898,803.6719 C888.21,817.9019 875.25,836.2219 863,851.9219 C855.32,861.7619 850.3828,867.7406 842.5628,876.7506 " fill="none" id="auth-to-db_auth" style="stroke:#454645;stroke-width:1.0;"/><polygon fill="#454645" points="838.63,881.2819,847.5501,877.1068,841.9074,877.5058,841.5084,871.863,838.63,881.2819" style="stroke:#454645;stroke-width:1.0;"/></g><!--link auth to refresh_token--><g id="link_auth_refresh_token"><path d="M923.14,803.6319 C930.65,823.1019 939.1902,845.2741 947.4702,866.7341 " fill="none" id="auth-to-refresh_token" style="stroke:#454645;stroke-width:1.0;"/><polygon fill="#454645" points="949.63,872.3319,950.1221,862.4953,947.8302,867.6671,942.6584,865.3751,949.63,872.3319" style="stroke:#454645;stroke-width:1.0;"/></g><!--link UGC.api to UGC.service--><g id="link_UGC.api_UGC.service"><path d="M511,686.0719 C511,706.0019 511,728.3819 511,748.3019 " fill="none" id="UGC.api-to-UGC.service" style="stroke:#454645;stroke-width:1.0;"/><polygon fill="#454645" points="511,754.3019,515,745.3019,511,749.3019,507,745.3019,511,754.3019" style="stroke:#454645;stroke-width:1.0;"/></g><!--link UGC.service to Broker--><g id="link_UGC.service_Broker"><path d="M511,803.6319 C511,822.9619 511,844.4719 511,865.8619 " fill="none" id="UGC.service-to-Broker" style="stroke:#454645;stroke-width:1.0;"/><polygon fill="#454645" points="511,871.8619,515,862.8619,511,866.8619,507,862.8619,511,871.8619" style="stroke:#454645;stroke-width:1.0;"/></g><!--reverse link Broker to UGC.ETL--><g id="link_Broker_UGC.ETL"><path d="M511,944.9219 C511,967.2019 511,990.2519 511,1010.3319 " fill="none" id="Broker-backto-UGC.ETL" style="stroke:#454645;stroke-width:1.0;"/><polygon fill="#454645" points="511,938.9219,507,947.9219,511,943.9219,515,947.9219,511,938.9219" style="stroke:#454645;stroke-width:1.0;"/></g><!--reverse link SQLite to Loader.service--><g id="link_SQLite_Loader.service"><path d="M475,114.0319 C475,131.6519 475,149.8319 475,167.6219 " fill="none" id="SQLite-backto-Loader.service" style="stroke:#454645;stroke-width:1.0;stroke-dasharray:7.0,7.0;"/><polygon fill="#454645" points="475,108.0319,471,117.0319,475,113.0319,479,117.0319,475,108.0319" style="stroke:#454645;stroke-width:1.0;"/></g><!--link Loader.service to db_admin--><g id="link_Loader.service_db_admin"><path d="M472.04,217.1319 C468.01,249.3319 461.6037,300.5582 457.6237,332.4182 " fill="none" id="Loader.service-to-db_admin" style="stroke:#454645;stroke-width:1.0;"/><polygon fill="#454645" points="456.88,338.3719,461.9648,329.9371,457.4998,333.4104,454.0265,328.9455,456.88,338.3719" style="stroke:#454645;stroke-width:1.0;"/></g><!--reverse link db_admin to admin--><g id="link_db_admin_admin"><path d="M508.53,362.4219 C520.26,362.4219 525.99,362.4219 537.73,362.4219 " fill="none" id="db_admin-backto-admin" style="stroke:#454645;stroke-width:1.0;"/><polygon fill="#454645" points="502.53,362.4219,511.53,366.4219,507.53,362.4219,511.53,358.4219,502.53,362.4219" style="stroke:#454645;stroke-width:1.0;"/></g><!--link ETL.service to db_admin--><g id="link_ETL.service_db_admin"><path d="M286.57,362.4219 C326.14,362.4219 359.71,362.4219 399.27,362.4219 " fill="none" id="ETL.service-to-db_admin" style="stroke:#454645;stroke-width:1.0;stroke-dasharray:7.0,7.0;"/><polygon fill="#454645" points="405.27,362.4219,396.27,358.4219,400.27,362.4219,396.27,366.4219,405.27,362.4219" style="stroke:#454645;stroke-width:1.0;"/></g><!--link ETL.service to Elasticsearch--><g id="link_ETL.service_Elasticsearch"><path d="M229,387.1419 C229,411.0319 229,441.6519 229,465.3119 " fill="none" id="ETL.service-to-Elasticsearch" style="stroke:#454645;stroke-width:1.0;"/><polygon fill="#454645" points="229,471.3119,233,462.3119,229,466.3119,225,462.3119,229,471.3119" style="stroke:#454645;stroke-width:1.0;"/></g><!--reverse link Elasticsearch to API.service--><g id="link_Elasticsearch_API.service"><path d="M229,525.5719 C229,556.6519 229,605.5719 229,636.8619 " fill="none" id="Elasticsearch-backto-API.service" style="stroke:#454645;stroke-width:1.0;"/><polygon fill="#454645" points="229,519.5719,225,528.5719,229,524.5719,233,528.5719,229,519.5719" style="stroke:#454645;stroke-width:1.0;"/></g><!--link oauth to Google--><g id="link_oauth_Google"><path d="M784.37,803.7919 C768.44,821.5319 747.46,846.9019 733,871.9219 C706.27,918.1619 688.1007,972.1539 678.3807,1004.6239 " fill="none" id="oauth-to-Google" style="stroke:#454645;stroke-width:1.0;"/><polygon fill="#454645" points="676.66,1010.3719,683.073,1002.897,678.0939,1005.5819,675.409,1000.6028,676.66,1010.3719" style="stroke:#454645;stroke-width:1.0;"/></g><!--link oauth to Yandex--><g id="link_oauth_Yandex"><path d="M787.9,803.6219 C774.96,821.2919 758.98,846.6319 752,871.9219 C739.4,917.5519 737.46,933.3819 752,978.4219 C755.72,989.9519 759.1446,996.3671 766.3446,1005.6171 " fill="none" id="oauth-to-Yandex" style="stroke:#454645;stroke-width:1.0;"/><polygon fill="#454645" points="770.03,1010.3519,767.6584,1000.7928,766.9588,1006.4063,761.3454,1005.7067,770.03,1010.3519" style="stroke:#454645;stroke-width:1.0;"/></g><!--reverse link JaegerUI to jaeger--><g id="link_JaegerUI_jaeger"><path d="M947,526.2719 C947,557.4519 947,605.7519 947,636.8119 " fill="none" id="JaegerUI-backto-jaeger" style="stroke:#454645;stroke-width:1.0;"/><polygon fill="#454645" points="947,520.2719,943,529.2719,947,525.2719,951,529.2719,947,520.2719" style="stroke:#454645;stroke-width:1.0;"/></g><!--link UGC.ETL to ClickHouse--><g id="link_UGC.ETL_ClickHouse"><path d="M511,1059.5619 C511,1077.3319 511,1095.5519 511,1113.2219 " fill="none" id="UGC.ETL-to-ClickHouse" style="stroke:#454645;stroke-width:1.0;"/><polygon fill="#454645" points="511,1119.2219,515,1110.2219,511,1114.2219,507,1110.2219,511,1119.2219" style="stroke:#454645;stroke-width:1.0;"/></g><!--link Client to api--><g id="link_Client_api"><path d="M473.83,534.0419 C442.63,565.6319 403.2372,605.5239 376.6772,632.4039 " fill="none" id="Client-to-api" style="stroke:#454645;stroke-width:1.0;"/><polygon fill="#454645" points="372.46,636.6719,381.6311,633.0814,375.9743,633.1152,375.9404,627.4585,372.46,636.6719" style="stroke:#454645;stroke-width:1.0;"/></g><!--link Client to Auth.api--><g id="link_Client_Auth.api"><path d="M548.28,499.1019 C603.41,504.7919 707.53,522.3419 776,575.9219 C796,591.5719 807.3566,612.0916 815.2766,631.1416 " fill="none" id="Client-to-Auth.api" style="stroke:#454645;stroke-width:1.0;"/><polygon fill="#454645" points="817.58,636.6819,817.8185,626.8359,815.6605,632.065,810.4315,629.907,817.58,636.6819" style="stroke:#454645;stroke-width:1.0;"/></g><!--link Client to UGC.api--><g id="link_Client_UGC.api"><path d="M511,544.3019 C511,574.7419 511,606.8219 511,630.8919 " fill="none" id="Client-to-UGC.api" style="stroke:#454645;stroke-width:1.0;"/><polygon fill="#454645" points="511,636.8919,515,627.8919,511,631.8919,507,627.8919,511,636.8919" style="stroke:#454645;stroke-width:1.0;"/></g><!--SRC=[VLDTQzim57tNhz0AOzk37TZZ28Qij5st5B9rVIZ11CMwiRNOaf6KR6Nil-zAyeVSj344edlE_JhttdULjQtvD9krDPFsqDHfePeP_bebGTg42rPgrf0tje86w55iDVA8sGlPCWJeGBstJpLGZF2Ha0eO1qtVScRX_GNdz0u_-eZVnGTYXKNYdJeAC8IqhDYp4kXIUPU_XD9r-9yQq4THG4x-3Qm5RuHSCGbrO3BtTeI1SVLp6Q369yXfmjLlcIGPNICqnaH62LAVPxIWZP9dAPDtLCV2FCbYiRhrnQ0ERCiCq1_0XQ7pUS6A2hACCaDPApR-wQAXmn2DpjDKYxAoQOgDjY8_8OIgiYW45h0usChbJP9r9JW7cViWIJAK51NPSRrWxf6wFDGtol2Pls1NBm1zdGZ_Ob22pkEcLyhOKiFzzwNhbsytBiAfAYYBXXrEfA9MxK46UJhJnflyo5rwNyeOAJ9E-T507cukGv_u9sh7lU9vVjReg57y-JUssxCiwrr6rPrRH-j1t0843cqCOUwXG-nTM21d976BFE9NDJDM50QOBYfIrEh0G_4tIfLrgFIHIGv_N9uHlwm5dY8MVwsLj20vrX_Zwwz-F0-tKxSXB_eN-o_gOFmgXQhT7fxUv7F3U293DzrrqgI6dPqWP78s_VgyJkWNVIhBisFmwayPfDjMd9cRJ2_UrDhhsAzkFyTHAXBD69589D897Yx6tMXl24UNHLSouVPB-1y0]--></g></svg>