<?xml version="1.0" encoding="us-ascii" standalone="no"?><svg xmlns="http://www.w3.org/2000/svg" xmlns:xlink="http://www.w3.org/1999/xlink" contentStyleType="text/css" height="602px" preserveAspectRatio="none" style="width:693px;height:602px;background:#FFFFFF;" version="1.1" viewBox="0 0 693 602" width="693px" zoomAndPan="magnify"><defs/><g><text fill="#888888" font-family="sans-serif" font-size="10" lengthAdjust="spacing" textLength="60" x="619.9071" y="10.791">16 &#1084;&#1072;&#1103; 2024</text><text fill="#000000" font-family="sans-serif" font-size="14" font-weight="bold" lengthAdjust="spacing" textLength="172" x="253.9535" y="39.4082">Movies UGC Component</text><g id="cluster_##3"><path d="M19.0352,232.7533 C22.5337,228.0292 26.7112,226.9675 30.1646,232.8008 C32.9008,226.0874 37.5251,226.3221 41.7245,231.3616 C45.5788,226.2593 50.1441,226.4139 53.6913,231.7149 C55.4957,225.0582 61.1204,224.5099 65.2828,229.3341 C67.9147,224.0991 72.4694,224.3515 75.9349,228.375 C80.2353,222.5889 83.9116,224.3053 87.1398,229.4719 C90.9045,224.0591 94.6224,225.1899 97.6965,230.173 C102.9567,224.9067 106.3293,227.0581 109.089,232.7683 C112.9525,227.4922 116.8321,226.7679 120.6277,232.8374 C124.9159,228.9166 128.2967,229.0556 131.0921,234.5046 C139.1218,238.5649 140.272,244.9871 132.6168,250.539 C140.2928,253.1638 141.6052,259.7999 136.4174,265.6584 C143.0114,273.3544 142.5166,278.8568 132.9326,283.3696 C139.8957,288.2189 140.4135,295.0381 131.9094,298.8661 C127.5618,304.7126 123.6322,303.9033 119.323,298.8218 C117.1067,303.8732 113.6754,304.5477 109.7245,300.6908 C107.1263,306.8203 101.4302,308.4384 97.2578,302.2891 C94.9438,308.3403 89.7633,309.2677 86.0458,303.6361 C82.504,307.6104 78.9764,308.0596 75.9153,303.0916 C72.6142,308.9033 67.8595,308.3955 64.6125,303.0369 C61.566,308.4888 56.3209,308.419 53.9418,302.4153 C48.8478,308.1156 43.7877,306.6214 41.3012,299.786 C37.9946,304.564 32.8047,304.2247 30.5567,298.6838 C26.9075,304.9887 22.3833,304.374 18.5825,298.8371 C13.7772,295.8634 12.3896,292.173 17.4698,288.1683 C11.0095,285.5912 9.5131,282.1105 13.9753,276.3137 C8.2987,274.1347 7.2824,271.0598 10.9901,266.13 C6,261.1471 7.8669,257.9153 13.1473,254.9063 C9.3652,251.1174 10.887,246.6794 15.7339,245.187 C11.3121,239.4619 12.8765,235.6692 19.0352,232.7533 " fill="none" style="stroke:#696969;stroke-width:1.0;"/></g><!--cluster UGC--><g id="cluster_UGC"><path d="M298.9859,203.4219 L328.9859,203.4219 A5.25,5.25 0 0 1 332.4859,206.9219 L339.4859,228.043 L491.9859,228.043 A3.5,3.5 0 0 1 495.4859,231.543 L495.4859,585.4219 A3.5,3.5 0 0 1 491.9859,588.9219 L298.9859,588.9219 A3.5,3.5 0 0 1 295.4859,585.4219 L295.4859,206.9219 A3.5,3.5 0 0 1 298.9859,203.4219 " fill="none" style="stroke:#696969;stroke-width:1.0;"/><line style="stroke:#696969;stroke-width:1.0;" x1="295.4859" x2="339.4859" y1="228.043" y2="228.043"/><text fill="#000000" font-family="sans-serif" font-size="14" font-weight="bold" lengthAdjust="spacing" textLength="31" x="299.4859" y="220.5293">UGC</text></g><!--cluster Broker--><g id="cluster_Broker"><rect fill="none" height="101" rx="3.5" ry="3.5" style="stroke:#696969;stroke-width:1.0;" width="134" x="319.4859" y="356.4219"/><rect fill="none" height="10" style="stroke:#696969;stroke-width:1.0;" width="15" x="433.4859" y="361.4219"/><rect fill="none" height="2" style="stroke:#696969;stroke-width:1.0;" width="4" x="431.4859" y="363.4219"/><rect fill="none" height="2" style="stroke:#696969;stroke-width:1.0;" width="4" x="431.4859" y="367.4219"/><text fill="#000000" font-family="sans-serif" font-size="14" font-weight="bold" lengthAdjust="spacing" textLength="48" x="362.4859" y="384.5293">Broker</text></g><g id="cluster_##13"><path d="M568.9897,518.1837 C573.2239,512.2267 577.6463,512.2271 582.0744,517.9668 C585.6323,510.8278 592.2415,510.5344 596.453,517.2904 C599.0365,509.912 605.4836,510.3865 609.8952,515.2895 C615.0722,508.3548 619.3945,508.9458 623.5355,516.2799 C627.2363,511.6272 631.5299,511.2843 635.066,516.4729 C640.0528,509.0756 645.9138,510.1081 650.1474,517.2539 C654.5263,511.2854 658.817,511.9782 662.3939,518.0683 C666.7515,511.6833 672.1985,511.8602 676.4345,518.2024 C685.0641,522.6829 684.5526,527.9482 677.7809,533.7614 C685.8006,536.8813 686.9071,544.2774 679.0331,548.7271 C685.8385,554.4087 685.412,560.7214 677.0283,564.4685 C685.5197,570.0435 683.3626,577.7046 675.063,581.3216 C671.5761,587.3281 667.6758,587.2754 663.084,582.5555 C660.5958,589.1677 655.0073,592.4212 649.2959,585.9532 C646.2577,592.4181 640.1075,593.9318 635.2092,588.0807 C632.1006,595.209 626.7199,595.8542 622.3855,589.2232 C617.4236,594.4871 612.5658,593.474 610.0636,586.7045 C605.675,593.4406 598.8502,592.8089 595.2268,585.8741 C590.0571,589.9849 585.1562,590.2475 582.9886,582.7178 C577.4177,588.947 572.6684,587.3851 569.0984,580.5847 C564.8392,578.3376 563.0878,575.4495 567.4444,571.6138 C561.0302,569.9864 560.3619,565.7484 564.3697,561.0792 C558.7399,559.1249 555.778,554.0896 561.1904,549.184 C556.0565,544.1582 557.4566,540.016 564.0435,537.9732 C560.1316,532.7934 561.3383,529.4406 567.6619,527.9592 C563.5662,524.5104 564.6558,520.4875 568.9897,518.1837 " fill="none" style="stroke:#696969;stroke-width:1.0;"/></g><!--entity moviesUI--><g id="elem_moviesUI"><rect fill="#F1F1F1" height="48.6211" rx="3.5" ry="3.5" style="stroke:#181818;stroke-width:0.5;" width="96" x="26.4859" y="240.4219"/><rect fill="#F1F1F1" height="10" style="stroke:#181818;stroke-width:0.5;" width="15" x="102.4859" y="245.4219"/><rect fill="#F1F1F1" height="2" style="stroke:#181818;stroke-width:0.5;" width="4" x="100.4859" y="247.4219"/><rect fill="#F1F1F1" height="2" style="stroke:#181818;stroke-width:0.5;" width="4" x="100.4859" y="251.4219"/><text fill="#000000" font-family="sans-serif" font-size="14" lengthAdjust="spacing" textLength="56" x="41.4859" y="275.5293">moviesUI</text></g><!--entity EventHandler--><g id="elem_EventHandler"><rect fill="#F1F1F1" height="48.6211" rx="3.5" ry="3.5" style="stroke:#181818;stroke-width:0.5;" width="125" x="311.9859" y="240.4219"/><rect fill="#F1F1F1" height="10" style="stroke:#181818;stroke-width:0.5;" width="15" x="416.9859" y="245.4219"/><rect fill="#F1F1F1" height="2" style="stroke:#181818;stroke-width:0.5;" width="4" x="414.9859" y="247.4219"/><rect fill="#F1F1F1" height="2" style="stroke:#181818;stroke-width:0.5;" width="4" x="414.9859" y="251.4219"/><text fill="#000000" font-family="sans-serif" font-size="14" lengthAdjust="spacing" textLength="85" x="326.9859" y="275.5293">EventHandler</text></g><!--entity ETL--><g id="elem_ETL"><rect fill="#F1F1F1" height="48.6211" rx="3.5" ry="3.5" style="stroke:#181818;stroke-width:0.5;" width="66" x="336.4859" y="523.9219"/><rect fill="#F1F1F1" height="10" style="stroke:#181818;stroke-width:0.5;" width="15" x="382.4859" y="528.9219"/><rect fill="#F1F1F1" height="2" style="stroke:#181818;stroke-width:0.5;" width="4" x="380.4859" y="530.9219"/><rect fill="#F1F1F1" height="2" style="stroke:#181818;stroke-width:0.5;" width="4" x="380.4859" y="534.9219"/><text fill="#000000" font-family="sans-serif" font-size="14" lengthAdjust="spacing" textLength="26" x="351.4859" y="559.0293">ETL</text></g><!--entity store_broker--><g id="elem_store_broker"><path d="M335.9859,403.4219 C335.9859,393.4219 386.4859,393.4219 386.4859,393.4219 C386.4859,393.4219 436.9859,393.4219 436.9859,403.4219 L436.9859,431.043 C436.9859,441.043 386.4859,441.043 386.4859,441.043 C386.4859,441.043 335.9859,441.043 335.9859,431.043 L335.9859,403.4219 " fill="#00FFFF" style="stroke:#454645;stroke-width:0.5;"/><path d="M335.9859,403.4219 C335.9859,413.4219 386.4859,413.4219 386.4859,413.4219 C386.4859,413.4219 436.9859,413.4219 436.9859,403.4219 " fill="none" style="stroke:#454645;stroke-width:0.5;"/><text fill="#454645" font-family="sans-serif" font-size="14" lengthAdjust="spacing" textLength="81" x="345.9859" y="432.5293">store_broker</text></g><!--entity ClickHouse--><g id="elem_ClickHouse"><path d="M576.4859,534.4219 C576.4859,524.4219 621.4859,524.4219 621.4859,524.4219 C621.4859,524.4219 666.4859,524.4219 666.4859,534.4219 L666.4859,562.043 C666.4859,572.043 621.4859,572.043 621.4859,572.043 C621.4859,572.043 576.4859,572.043 576.4859,562.043 L576.4859,534.4219 " fill="#00FFFF" style="stroke:#454645;stroke-width:0.5;"/><path d="M576.4859,534.4219 C576.4859,544.4219 621.4859,544.4219 621.4859,544.4219 C621.4859,544.4219 666.4859,544.4219 666.4859,534.4219 " fill="none" style="stroke:#454645;stroke-width:0.5;"/><text fill="#454645" font-family="sans-serif" font-size="14" lengthAdjust="spacing" textLength="70" x="586.4859" y="563.5293">ClickHouse</text></g><!--entity User--><g id="elem_User"><ellipse cx="74.4859" cy="67.9219" fill="#454645" rx="8" ry="8" style="stroke:#454645;stroke-width:0.5;"/><path d="M74.4859,75.9219 L74.4859,102.9219 M61.4859,83.9219 L87.4859,83.9219 M74.4859,102.9219 L61.4859,117.9219 M74.4859,102.9219 L87.4859,117.9219 " fill="none" style="stroke:#454645;stroke-width:0.5;"/><text fill="#454645" font-family="sans-serif" font-size="14" lengthAdjust="spacing" textLength="29" x="59.9859" y="134.5293">User</text></g><!--link EventHandler to store_broker--><g id="link_EventHandler_store_broker"><path d="M376.3659,289.4419 C378.6159,317.7119 381.8987,358.8909 384.1487,387.0909 " fill="none" id="EventHandler-to-store_broker" style="stroke:#454645;stroke-width:1.0;"/><polygon fill="#454645" points="384.6259,393.0719,387.8974,383.7822,384.2282,388.0877,379.9228,384.4185,384.6259,393.0719" style="stroke:#454645;stroke-width:1.0;"/><text fill="#000000" font-family="sans-serif" font-size="13" lengthAdjust="spacing" textLength="131" x="380.4859" y="336.4502">3. &#1057;&#1086;&#1093;&#1088;&#1072;&#1085;&#1103;&#1077;&#1090; &#1089;&#1086;&#1073;&#1099;&#1090;&#1080;&#1077;</text></g><!--reverse link store_broker to ETL--><g id="link_store_broker_ETL"><path d="M382.661,447.4303 C379.601,470.6203 375.7059,500.2619 372.6159,523.6819 " fill="none" id="store_broker-backto-ETL" style="stroke:#454645;stroke-width:1.0;"/><polygon fill="#454645" points="383.4459,441.4819,378.3029,449.8813,382.7918,446.4389,386.2342,450.9278,383.4459,441.4819" style="stroke:#454645;stroke-width:1.0;"/><text fill="#000000" font-family="sans-serif" font-size="13" lengthAdjust="spacing" textLength="108" x="379.4859" y="488.4502">4. &#1063;&#1080;&#1090;&#1072;&#1077;&#1090; &#1089;&#1086;&#1073;&#1099;&#1090;&#1080;&#1077;</text></g><!--link User to moviesUI--><g id="link_User_moviesUI"><path d="M74.4859,138.7919 C74.4859,170.2319 74.4859,207.5119 74.4859,234.0619 " fill="none" id="User-to-moviesUI" style="stroke:#454645;stroke-width:1.0;"/><polygon fill="#454645" points="74.4859,240.0619,78.4859,231.0619,74.4859,235.0619,70.4859,231.0619,74.4859,240.0619" style="stroke:#454645;stroke-width:1.0;"/><text fill="#000000" font-family="sans-serif" font-size="13" lengthAdjust="spacing" textLength="146" x="75.4859" y="183.4502">1. &#1054;&#1090;&#1089;&#1083;&#1077;&#1078;&#1080;&#1074;&#1072;&#1077;&#1090; &#1089;&#1086;&#1073;&#1099;&#1090;&#1080;&#1077;</text></g><!--link moviesUI to EventHandler--><g id="link_moviesUI_EventHandler"><path d="M122.6859,264.9219 C174.0359,264.9219 249.5059,264.9219 305.8059,264.9219 " fill="none" id="moviesUI-to-EventHandler" style="stroke:#454645;stroke-width:1.0;"/><polygon fill="#454645" points="311.8059,264.9219,302.8059,260.9219,306.8059,264.9219,302.8059,268.9219,311.8059,264.9219" style="stroke:#454645;stroke-width:1.0;"/><text fill="#000000" font-family="sans-serif" font-size="13" lengthAdjust="spacing" textLength="153" x="140.7359" y="257.9502">2. &#1054;&#1073;&#1088;&#1072;&#1073;&#1072;&#1090;&#1099;&#1074;&#1072;&#1077;&#1090; &#1089;&#1086;&#1073;&#1099;&#1090;&#1080;&#1077;</text></g><!--link ETL to ClickHouse--><g id="link_ETL_ClickHouse"><path d="M402.6859,548.4219 C447.1959,548.4219 520.3659,548.4219 570.2759,548.4219 " fill="none" id="ETL-to-ClickHouse" style="stroke:#454645;stroke-width:1.0;"/><polygon fill="#454645" points="576.2759,548.4219,567.2759,544.4219,571.2759,548.4219,567.2759,552.4219,576.2759,548.4219" style="stroke:#454645;stroke-width:1.0;"/><text fill="#000000" font-family="sans-serif" font-size="13" lengthAdjust="spacing" textLength="137" x="420.9859" y="541.4502">5. &#1054;&#1090;&#1087;&#1088;&#1072;&#1074;&#1083;&#1103;&#1077;&#1090; &#1089;&#1086;&#1073;&#1099;&#1090;&#1080;&#1077;</text></g><!--SRC=[TP1FIm916CRlyodUXAWEgsHrMQ934XdagJn4I8oxB-woVvaPXGYXX4uU-WP1fwug689aNs7c6_NkHgwI3SnbdkVvpVE-EvvIgRGhbJJaiUf6OTb9eWhTD8anLfRhyuxW4MDRoiC8eUUt1HcP3FmuvQJ0qdkbxaC4GbGPyv2xA63RvGftIwuB3JfmGwUqnvIloDX8UZvAQ9xNeFQBO8nnHoK2cX85SyAawy830xYDSdFpeiNwBELEm3kO9tFnh4VHEe_T44MB7fQDu5Ga0OhC141LU9jB14aVu5qxbqZf_q60PPsikMmuA8D-qmlpR1xrI7-Q5pqr0p1FUg77PcW6UgQdn5aDmR5b4VZwicN38SNVzOnyeqt1_igeovgrq7U2UjALI3hB5fBtAbPXmpvXNys0Q7CzrH_4ccp-e0Y19VoEfpBGsimsL3COPR81ntf4sE6_k6ogWbGqjU7efvB-oZaJFT-ugcy0]--></g></svg>